<mxfile host="app.diagrams.net" agent="Mozilla/5.0 (X11; Linux x86_64) AppleWebKit/537.36 (KHTML, like Gecko) Chrome/139.0.0.0 Safari/537.36" version="28.1.2">
  <diagram name="Pagina-1" id="EtNZyvwIx60SUzeRthI1">
    <mxGraphModel dx="1376" dy="765" grid="1" gridSize="10" guides="1" tooltips="1" connect="1" arrows="1" fold="1" page="1" pageScale="1" pageWidth="827" pageHeight="1169" math="0" shadow="0">
      <root>
        <mxCell id="0" />
        <mxCell id="1" parent="0" />
        <mxCell id="UM94i02UMcKTz3uDxynH-30" value="" style="rounded=1;whiteSpace=wrap;html=1;fillColor=#e1d5e7;strokeColor=#9673a6;glass=0;shadow=0;" parent="1" vertex="1">
          <mxGeometry x="153" y="265" width="317" height="145" as="geometry" />
        </mxCell>
        <mxCell id="UM94i02UMcKTz3uDxynH-25" value="" style="rounded=1;whiteSpace=wrap;html=1;fillColor=#f8cecc;strokeColor=#b85450;glass=0;shadow=0;fillStyle=auto;" parent="1" vertex="1">
          <mxGeometry x="90" y="20" width="220" height="150" as="geometry" />
        </mxCell>
        <mxCell id="UM94i02UMcKTz3uDxynH-2" value="&lt;b&gt;&lt;i&gt;Internet&lt;/i&gt;&lt;/b&gt;" style="text;html=1;align=center;verticalAlign=middle;resizable=0;points=[];autosize=1;strokeColor=none;fillColor=none;" parent="1" vertex="1">
          <mxGeometry x="37.49999999999999" y="195" width="70" height="30" as="geometry" />
        </mxCell>
        <mxCell id="UM94i02UMcKTz3uDxynH-3" value="" style="sketch=0;points=[[0.5,0,0],[1,0.5,0],[0.5,1,0],[0,0.5,0],[0.145,0.145,0],[0.8555,0.145,0],[0.855,0.8555,0],[0.145,0.855,0]];verticalLabelPosition=bottom;html=1;verticalAlign=top;aspect=fixed;align=center;pointerEvents=1;shape=mxgraph.cisco19.rect;prIcon=router;fillColor=#FAFAFA;strokeColor=#005073;" parent="1" vertex="1">
          <mxGeometry x="190" y="180" width="50" height="50" as="geometry" />
        </mxCell>
        <mxCell id="UM94i02UMcKTz3uDxynH-4" value="" style="endArrow=none;html=1;rounded=0;entryX=0;entryY=0.5;entryDx=0;entryDy=0;entryPerimeter=0;exitX=0.941;exitY=0.559;exitDx=0;exitDy=0;exitPerimeter=0;" parent="1" source="UM94i02UMcKTz3uDxynH-27" target="UM94i02UMcKTz3uDxynH-3" edge="1">
          <mxGeometry width="50" height="50" relative="1" as="geometry">
            <mxPoint x="150" y="195" as="sourcePoint" />
            <mxPoint x="400" y="255" as="targetPoint" />
          </mxGeometry>
        </mxCell>
        <mxCell id="UM94i02UMcKTz3uDxynH-5" value="&lt;b&gt;&lt;i&gt;Perimeter&lt;/i&gt;&lt;/b&gt;&lt;div&gt;&lt;b&gt;&lt;i&gt;Router&lt;/i&gt;&lt;/b&gt;&lt;/div&gt;" style="text;html=1;align=center;verticalAlign=middle;resizable=0;points=[];autosize=1;strokeColor=none;fillColor=none;" parent="1" vertex="1">
          <mxGeometry x="175" y="225" width="80" height="40" as="geometry" />
        </mxCell>
        <mxCell id="UM94i02UMcKTz3uDxynH-6" value="" style="sketch=0;points=[[0.5,0,0],[1,0.5,0],[0.5,1,0],[0,0.5,0],[0.145,0.145,0],[0.8555,0.145,0],[0.855,0.8555,0],[0.145,0.855,0]];verticalLabelPosition=bottom;html=1;verticalAlign=top;aspect=fixed;align=center;pointerEvents=1;shape=mxgraph.cisco19.rect;prIcon=router_with_firewall;fillColor=#FAFAFA;strokeColor=#005073;" parent="1" vertex="1">
          <mxGeometry x="325" y="180" width="50" height="50" as="geometry" />
        </mxCell>
        <mxCell id="UM94i02UMcKTz3uDxynH-7" value="&lt;b&gt;&lt;i&gt;Enterprise&lt;/i&gt;&lt;/b&gt;&lt;div&gt;&lt;b&gt;&lt;i&gt;Firewall&lt;/i&gt;&lt;/b&gt;&lt;/div&gt;" style="text;html=1;align=center;verticalAlign=middle;resizable=0;points=[];autosize=1;strokeColor=none;fillColor=none;" parent="1" vertex="1">
          <mxGeometry x="310" y="140" width="80" height="40" as="geometry" />
        </mxCell>
        <mxCell id="UM94i02UMcKTz3uDxynH-10" style="edgeStyle=orthogonalEdgeStyle;rounded=0;orthogonalLoop=1;jettySize=auto;html=1;exitX=1;exitY=0.5;exitDx=0;exitDy=0;exitPerimeter=0;entryX=0;entryY=0.5;entryDx=0;entryDy=0;entryPerimeter=0;shape=filledEdge;endArrow=none;endFill=0;" parent="1" source="UM94i02UMcKTz3uDxynH-3" target="UM94i02UMcKTz3uDxynH-6" edge="1">
          <mxGeometry relative="1" as="geometry" />
        </mxCell>
        <mxCell id="UM94i02UMcKTz3uDxynH-11" style="edgeStyle=orthogonalEdgeStyle;rounded=0;orthogonalLoop=1;jettySize=auto;html=1;exitX=1;exitY=0.5;exitDx=0;exitDy=0;exitPerimeter=0;endArrow=none;endFill=0;" parent="1" source="UM94i02UMcKTz3uDxynH-6" edge="1">
          <mxGeometry relative="1" as="geometry">
            <mxPoint x="460" y="205" as="targetPoint" />
          </mxGeometry>
        </mxCell>
        <mxCell id="UM94i02UMcKTz3uDxynH-12" value="" style="endArrow=none;html=1;rounded=0;strokeWidth=4;" parent="1" edge="1">
          <mxGeometry width="50" height="50" relative="1" as="geometry">
            <mxPoint x="110" y="120" as="sourcePoint" />
            <mxPoint x="285" y="120" as="targetPoint" />
          </mxGeometry>
        </mxCell>
        <mxCell id="UM94i02UMcKTz3uDxynH-13" value="" style="endArrow=none;html=1;rounded=0;exitX=0.5;exitY=0;exitDx=0;exitDy=0;exitPerimeter=0;" parent="1" source="UM94i02UMcKTz3uDxynH-3" edge="1">
          <mxGeometry width="50" height="50" relative="1" as="geometry">
            <mxPoint x="410" y="250" as="sourcePoint" />
            <mxPoint x="215" y="120" as="targetPoint" />
          </mxGeometry>
        </mxCell>
        <mxCell id="UM94i02UMcKTz3uDxynH-16" value="" style="sketch=0;points=[[0.015,0.015,0],[0.985,0.015,0],[0.985,0.985,0],[0.015,0.985,0],[0.25,0,0],[0.5,0,0],[0.75,0,0],[1,0.25,0],[1,0.5,0],[1,0.75,0],[0.75,1,0],[0.5,1,0],[0.25,1,0],[0,0.75,0],[0,0.5,0],[0,0.25,0]];verticalLabelPosition=bottom;html=1;verticalAlign=top;aspect=fixed;align=center;pointerEvents=1;shape=mxgraph.cisco19.server;fillColor=#005073;strokeColor=none;" parent="1" vertex="1">
          <mxGeometry x="245.57999999999998" y="60" width="27.500000000000004" height="50" as="geometry" />
        </mxCell>
        <mxCell id="UM94i02UMcKTz3uDxynH-17" value="" style="sketch=0;points=[[0.015,0.015,0],[0.985,0.015,0],[0.985,0.985,0],[0.015,0.985,0],[0.25,0,0],[0.5,0,0],[0.75,0,0],[1,0.25,0],[1,0.5,0],[1,0.75,0],[0.75,1,0],[0.5,1,0],[0.25,1,0],[0,0.75,0],[0,0.5,0],[0,0.25,0]];verticalLabelPosition=bottom;html=1;verticalAlign=top;aspect=fixed;align=center;pointerEvents=1;shape=mxgraph.cisco19.dns_server;fillColor=#005073;strokeColor=none;" parent="1" vertex="1">
          <mxGeometry x="186.83" y="60" width="27.500000000000004" height="50" as="geometry" />
        </mxCell>
        <mxCell id="UM94i02UMcKTz3uDxynH-18" value="" style="sketch=0;points=[[0.015,0.015,0],[0.985,0.015,0],[0.985,0.985,0],[0.015,0.985,0],[0.25,0,0],[0.5,0,0],[0.75,0,0],[1,0.25,0],[1,0.5,0],[1,0.75,0],[0.75,1,0],[0.5,1,0],[0.25,1,0],[0,0.75,0],[0,0.5,0],[0,0.25,0]];verticalLabelPosition=bottom;html=1;verticalAlign=top;aspect=fixed;align=center;pointerEvents=1;shape=mxgraph.cisco19.secure_server;fillColor=#005073;strokeColor=none;" parent="1" vertex="1">
          <mxGeometry x="117.58" y="60" width="27.500000000000004" height="50" as="geometry" />
        </mxCell>
        <mxCell id="UM94i02UMcKTz3uDxynH-19" value="FTP" style="text;html=1;align=center;verticalAlign=middle;resizable=0;points=[];autosize=1;strokeColor=none;fillColor=none;" parent="1" vertex="1">
          <mxGeometry x="107.5" y="30" width="50" height="30" as="geometry" />
        </mxCell>
        <mxCell id="UM94i02UMcKTz3uDxynH-20" value="DNS" style="text;html=1;align=center;verticalAlign=middle;resizable=0;points=[];autosize=1;strokeColor=none;fillColor=none;" parent="1" vertex="1">
          <mxGeometry x="173" y="30" width="50" height="30" as="geometry" />
        </mxCell>
        <mxCell id="UM94i02UMcKTz3uDxynH-21" value="WWW" style="text;html=1;align=center;verticalAlign=middle;resizable=0;points=[];autosize=1;strokeColor=none;fillColor=none;" parent="1" vertex="1">
          <mxGeometry x="229.33" y="30" width="60" height="30" as="geometry" />
        </mxCell>
        <mxCell id="UM94i02UMcKTz3uDxynH-26" value="&lt;b&gt;DMZ&lt;/b&gt;&lt;div&gt;&lt;b&gt;Net&lt;/b&gt;&lt;/div&gt;" style="text;html=1;align=center;verticalAlign=middle;whiteSpace=wrap;rounded=0;" parent="1" vertex="1">
          <mxGeometry x="157.5" y="130" width="60" height="30" as="geometry" />
        </mxCell>
        <mxCell id="UM94i02UMcKTz3uDxynH-27" value="" style="sketch=0;aspect=fixed;pointerEvents=1;shadow=0;html=1;labelPosition=center;verticalLabelPosition=bottom;verticalAlign=top;align=center;shape=mxgraph.mscae.enterprise.internet_hollow;strokeWidth=1;fontStyle=0" parent="1" vertex="1">
          <mxGeometry x="34.92" y="180" width="72.58" height="45" as="geometry" />
        </mxCell>
        <mxCell id="UM94i02UMcKTz3uDxynH-28" value="" style="endArrow=none;html=1;rounded=0;strokeWidth=4;" parent="1" edge="1">
          <mxGeometry width="50" height="50" relative="1" as="geometry">
            <mxPoint x="183" y="310" as="sourcePoint" />
            <mxPoint x="440" y="310" as="targetPoint" />
          </mxGeometry>
        </mxCell>
        <mxCell id="UM94i02UMcKTz3uDxynH-29" value="" style="endArrow=none;html=1;rounded=0;entryX=0.5;entryY=1;entryDx=0;entryDy=0;entryPerimeter=0;" parent="1" target="UM94i02UMcKTz3uDxynH-6" edge="1">
          <mxGeometry width="50" height="50" relative="1" as="geometry">
            <mxPoint x="350" y="310" as="sourcePoint" />
            <mxPoint x="270" y="200" as="targetPoint" />
          </mxGeometry>
        </mxCell>
        <mxCell id="UM94i02UMcKTz3uDxynH-31" value="&lt;b&gt;Enterprise Net&lt;/b&gt;" style="text;html=1;align=center;verticalAlign=middle;whiteSpace=wrap;rounded=0;" parent="1" vertex="1">
          <mxGeometry x="368" y="270" width="60" height="30" as="geometry" />
        </mxCell>
        <mxCell id="UM94i02UMcKTz3uDxynH-32" value="" style="points=[[0.03,0.03,0],[0.5,0,0],[0.97,0.03,0],[1,0.4,0],[0.97,0.745,0],[0.5,1,0],[0.03,0.745,0],[0,0.4,0]];verticalLabelPosition=bottom;sketch=0;html=1;verticalAlign=top;aspect=fixed;align=center;pointerEvents=1;shape=mxgraph.cisco19.workstation;fillColor=#005073;strokeColor=none;" parent="1" vertex="1">
          <mxGeometry x="173" y="325" width="50" height="40" as="geometry" />
        </mxCell>
        <mxCell id="UM94i02UMcKTz3uDxynH-33" value="Windows&amp;nbsp;&lt;div&gt;Workstation&lt;/div&gt;" style="text;html=1;align=center;verticalAlign=middle;resizable=0;points=[];autosize=1;strokeColor=none;fillColor=none;" parent="1" vertex="1">
          <mxGeometry x="155.57999999999998" y="360" width="90" height="40" as="geometry" />
        </mxCell>
        <mxCell id="UM94i02UMcKTz3uDxynH-35" value="" style="sketch=0;points=[[0.015,0.015,0],[0.985,0.015,0],[0.985,0.985,0],[0.015,0.985,0],[0.25,0,0],[0.5,0,0],[0.75,0,0],[1,0.25,0],[1,0.5,0],[1,0.75,0],[0.75,1,0],[0.5,1,0],[0.25,1,0],[0,0.75,0],[0,0.5,0],[0,0.25,0]];verticalLabelPosition=bottom;html=1;verticalAlign=top;aspect=fixed;align=center;pointerEvents=1;shape=mxgraph.cisco19.rect;prIcon=database_relational;fillColor=none;strokeColor=light-dark(#2657a1, #436697);" parent="1" vertex="1">
          <mxGeometry x="253" y="320" width="50" height="50" as="geometry" />
        </mxCell>
        <mxCell id="UM94i02UMcKTz3uDxynH-36" value="DB" style="text;html=1;align=center;verticalAlign=middle;resizable=0;points=[];autosize=1;strokeColor=none;fillColor=none;" parent="1" vertex="1">
          <mxGeometry x="258" y="370" width="40" height="30" as="geometry" />
        </mxCell>
        <mxCell id="UM94i02UMcKTz3uDxynH-37" value="" style="sketch=0;points=[[0.015,0.015,0],[0.985,0.015,0],[0.985,0.985,0],[0.015,0.985,0],[0.25,0,0],[0.5,0,0],[0.75,0,0],[1,0.25,0],[1,0.5,0],[1,0.75,0],[0.75,1,0],[0.5,1,0],[0.25,1,0],[0,0.75,0],[0,0.5,0],[0,0.25,0]];verticalLabelPosition=bottom;html=1;verticalAlign=top;aspect=fixed;align=center;pointerEvents=1;shape=mxgraph.cisco19.server;fillColor=#005073;strokeColor=none;" parent="1" vertex="1">
          <mxGeometry x="325.5" y="320" width="27.500000000000004" height="50" as="geometry" />
        </mxCell>
        <mxCell id="UM94i02UMcKTz3uDxynH-39" value="SCADA" style="text;html=1;align=center;verticalAlign=middle;resizable=0;points=[];autosize=1;strokeColor=none;fillColor=none;" parent="1" vertex="1">
          <mxGeometry x="308" y="370" width="60" height="30" as="geometry" />
        </mxCell>
        <mxCell id="UM94i02UMcKTz3uDxynH-40" value="" style="sketch=0;points=[[0.015,0.015,0],[0.985,0.015,0],[0.985,0.985,0],[0.015,0.985,0],[0.25,0,0],[0.5,0,0],[0.75,0,0],[1,0.25,0],[1,0.5,0],[1,0.75,0],[0.75,1,0],[0.5,1,0],[0.25,1,0],[0,0.75,0],[0,0.5,0],[0,0.25,0]];verticalLabelPosition=bottom;html=1;verticalAlign=top;aspect=fixed;align=center;pointerEvents=1;shape=mxgraph.cisco19.secure_server;fillColor=#005073;strokeColor=none;" parent="1" vertex="1">
          <mxGeometry x="399.25" y="320" width="27.500000000000004" height="50" as="geometry" />
        </mxCell>
        <mxCell id="UM94i02UMcKTz3uDxynH-41" value="Message Broker&lt;div&gt;DITTO&lt;/div&gt;" style="text;html=1;align=center;verticalAlign=middle;resizable=0;points=[];autosize=1;strokeColor=none;fillColor=none;" parent="1" vertex="1">
          <mxGeometry x="358" y="370" width="110" height="40" as="geometry" />
        </mxCell>
        <mxCell id="UM94i02UMcKTz3uDxynH-67" value="&lt;font style=&quot;color: rgb(204, 0, 0);&quot;&gt;&lt;i style=&quot;&quot;&gt;WWW&lt;/i&gt;&amp;nbsp;&lt;span style=&quot;background-color: transparent;&quot;&gt;@&amp;nbsp;&lt;/span&gt;&lt;/font&gt;&lt;div&gt;&lt;span style=&quot;background-color: transparent;&quot;&gt;&lt;font style=&quot;color: rgb(204, 0, 0);&quot;&gt;&lt;b style=&quot;&quot;&gt;:5000&lt;/b&gt;&lt;/font&gt;&lt;/span&gt;&lt;/div&gt;" style="text;html=1;align=center;verticalAlign=middle;resizable=0;points=[];autosize=1;strokeColor=none;fillColor=none;" parent="1" vertex="1">
          <mxGeometry x="123.82999999999998" y="185" width="80" height="40" as="geometry" />
        </mxCell>
        <mxCell id="ICwSYate2H8mOrp3sNgd-1" value="" style="rounded=0;whiteSpace=wrap;html=1;" vertex="1" parent="1">
          <mxGeometry x="350" width="120" height="420" as="geometry" />
        </mxCell>
      </root>
    </mxGraphModel>
  </diagram>
</mxfile>
